<svg version="1.1" id="Layer_1" xmlns="http://www.w3.org/2000/svg" xmlns:xlink="http://www.w3.org/1999/xlink" x="0px" y="0px"
	 width="100%" viewBox="0 0 911 1280" enable-background="new 0 0 911 1280" xml:space="preserve">
<path fill="rgb(22, 22, 22)" opacity="1.000000" stroke="none" 
	d="
M714.926147,46.000000 
	C733.823792,46.924358 751.477051,51.244225 768.562561,57.989704 
	C773.332458,59.872917 778.104004,61.856903 782.606873,64.290375 
	C793.137085,69.981186 798.960510,78.818718 798.979614,90.980583 
	C799.036499,127.144539 798.908142,163.308990 799.048950,199.472488 
	C799.099426,212.423645 792.887695,221.261932 782.077148,227.435471 
	C771.061646,233.726044 760.380432,231.595459 750.673035,224.922440 
	C742.775757,219.493713 736.007446,212.440384 728.205505,206.851532 
	C710.015381,193.821213 689.734619,185.150589 667.571838,182.221390 
	C651.035461,180.035812 634.535034,181.182465 620.490845,191.378754 
	C630.401917,198.149323 640.531616,205.025833 650.616272,211.967834 
	C669.584229,225.024841 685.646667,241.227554 700.884766,258.343597 
	C716.583374,275.976868 729.352295,295.635681 739.789001,316.669769 
	C750.867615,338.997406 759.340210,362.423279 763.902405,387.019775 
	C766.445862,400.732269 768.587830,414.575165 769.841919,428.455811 
	C771.206848,443.562256 772.072449,458.795013 771.776733,473.945740 
	C771.519409,487.133728 769.411377,500.291840 767.995117,513.449524 
	C765.794006,533.898438 760.681702,553.684998 754.003235,573.082275 
	C744.353516,601.109131 731.120911,627.288269 712.749939,650.644958 
	C704.269836,661.426575 695.857117,672.422424 686.144531,682.039001 
	C667.274109,700.722717 646.125366,716.579529 623.141724,730.105774 
	C596.798279,745.609375 568.670593,756.807983 539.591492,765.497131 
	C522.816223,770.509766 505.443970,773.704895 488.182434,776.851196 
	C474.912689,779.269897 461.435974,781.206238 447.981171,781.820312 
	C420.173126,783.089355 392.301422,784.217834 364.488739,783.686523 
	C346.125946,783.335693 327.689514,780.789368 309.519958,777.802856 
	C282.538544,773.368042 255.953079,766.977844 230.645569,756.208862 
	C227.520035,754.878784 225.245575,755.338928 223.288513,758.228333 
	C214.958267,770.527344 207.775177,783.364258 204.460129,798.017212 
	C199.472778,820.062012 202.967468,840.226257 216.888824,858.576050 
	C225.315445,869.683289 234.880936,879.141235 247.215347,885.750122 
	C255.690811,890.291321 264.728638,892.972229 274.216858,893.929565 
	C281.096252,894.623718 288.051849,895.089233 294.955109,894.917786 
	C312.889313,894.472412 330.485443,891.440613 347.571899,886.053711 
	C373.701569,877.815796 399.922546,869.780701 425.695435,860.520386 
	C456.278687,849.531616 486.349396,837.125366 516.788330,825.723389 
	C545.499390,814.968811 574.630371,805.413452 604.620972,798.860291 
	C617.566895,796.031494 630.668091,793.511719 643.833191,792.194153 
	C658.915955,790.684692 674.187622,789.636719 689.306702,790.219116 
	C718.756958,791.353760 746.480713,799.127808 772.053162,814.398621 
	C790.445801,825.382019 806.105530,839.492065 820.399414,855.097656 
	C834.968933,871.004150 847.748047,888.321594 857.984314,907.475952 
	C869.433350,928.899841 877.303345,951.523376 881.934692,975.281616 
	C885.878906,995.514954 886.037476,1016.106140 884.764893,1036.493042 
	C882.884827,1066.611572 875.397095,1095.638794 863.841309,1123.583984 
	C853.471008,1148.661987 840.477661,1172.342285 824.731323,1194.359863 
	C815.173706,1207.724121 804.280151,1220.155640 793.649963,1232.721313 
	C787.887207,1239.533325 780.945374,1245.368896 775.377441,1252.319580 
	C766.704651,1263.145996 744.256531,1264.762817 733.467224,1253.900757 
	C727.642639,1248.036987 721.945251,1242.033936 716.428223,1235.880615 
	C708.787476,1227.358643 711.348877,1207.784302 719.742554,1199.554077 
	C736.658142,1182.967896 751.262390,1164.484985 761.510986,1142.935913 
	C768.483704,1128.274658 773.020020,1112.992554 774.142578,1096.581665 
	C775.451965,1077.437988 770.959839,1060.293579 760.175293,1044.462769 
	C750.570679,1030.364136 737.622986,1022.223267 720.760803,1019.967407 
	C706.795044,1018.099060 693.121155,1019.224365 679.260071,1021.772461 
	C648.575073,1027.413452 619.603577,1038.142212 590.795593,1049.607422 
	C568.027222,1058.668945 545.157104,1067.476929 522.284363,1076.273315 
	C501.506195,1084.264038 480.933807,1092.923096 459.778412,1099.765259 
	C435.218781,1107.708862 410.274017,1114.610596 385.201813,1120.764160 
	C370.460724,1124.382080 355.216370,1126.439575 340.072754,1127.797852 
	C322.816620,1129.345581 305.319733,1130.786865 288.113647,1129.592651 
	C270.793396,1128.390625 253.463455,1124.842407 236.571823,1120.595703 
	C216.556824,1115.563843 198.046127,1106.318481 180.874649,1094.860352 
	C172.109543,1089.011597 163.868240,1082.262817 155.963867,1075.272095 
	C148.336487,1068.526367 141.234039,1061.144775 134.281448,1053.687988 
	C122.961998,1041.547607 113.934967,1027.764160 105.972046,1013.213501 
	C96.893295,996.624023 90.334633,979.074036 86.469193,960.660706 
	C84.136658,949.549438 82.446884,938.113953 82.239410,926.791687 
	C81.952667,911.143311 82.394295,895.349243 84.291878,879.833801 
	C85.884445,866.812317 89.612587,853.992065 93.098633,841.275513 
	C99.105820,819.362122 108.256950,798.605835 119.178467,778.785034 
	C130.393890,758.430969 143.030502,738.886597 158.272858,720.894531 
	C150.846558,715.431824 143.096832,710.647400 136.450027,704.642151 
	C124.360641,693.719788 112.314583,682.625916 101.399811,670.563538 
	C91.519676,659.644531 82.398331,647.846741 74.314713,635.535461 
	C58.819096,611.935547 46.785519,586.527771 40.080257,558.969299 
	C35.852657,541.593994 31.186436,524.117798 29.375202,506.414917 
	C27.140631,484.574188 27.336071,462.454468 27.106138,440.448792 
	C26.926786,423.283844 29.586334,406.291992 33.842255,389.720367 
	C38.303425,372.349609 42.781597,354.830933 49.301849,338.179413 
	C57.629143,316.913086 68.579666,296.825134 82.128662,278.192078 
	C93.763092,262.192078 106.497215,247.230515 120.874985,233.718063 
	C138.313370,217.329208 157.182571,202.686630 178.331772,191.393463 
	C194.457047,182.782959 210.790192,174.402527 227.613022,167.298309 
	C248.172379,158.616150 269.619080,152.299179 291.583801,148.001389 
	C303.793182,145.612427 315.979706,143.047760 328.264679,141.125641 
	C336.175354,139.887939 344.234192,139.374741 352.247253,139.057678 
	C373.409637,138.220261 394.600586,136.827515 415.746857,137.265259 
	C432.691376,137.616043 449.658661,139.808594 466.484375,142.134659 
	C483.446655,144.479614 500.286774,147.793289 517.101196,151.086960 
	C525.446228,152.721649 533.674500,155.059692 541.830078,157.499100 
	C544.912537,158.421097 546.146240,157.676666 547.551453,155.016708 
	C557.909729,135.409134 570.456299,117.410706 585.942200,101.391289 
	C601.184448,85.623917 618.398560,72.650116 637.849609,62.698719 
	C654.146790,54.360897 671.320801,48.501976 689.714294,47.052044 
	C697.931824,46.404270 706.194763,46.332943 714.926147,46.000000 
M307.029663,281.680725 
	C305.466644,285.192657 303.669098,288.620911 302.381287,292.231018 
	C296.839386,307.767059 290.726288,323.149414 286.178802,338.977753 
	C280.196869,359.798798 275.818176,381.044525 273.969025,402.720734 
	C272.702942,417.561768 270.753174,432.371033 270.173706,447.236023 
	C269.671417,460.121399 270.392517,473.079742 271.082489,485.978607 
	C271.685455,497.249756 272.536255,508.547943 274.108154,519.717285 
	C276.339752,535.574524 278.723755,551.457947 282.143585,567.089294 
	C287.258606,590.469238 294.344269,613.280701 304.959473,634.880249 
	C315.717804,656.771057 328.303467,677.066833 348.364960,692.022217 
	C370.992920,708.890808 395.995880,713.279907 422.463531,705.507324 
	C442.519318,699.617737 458.235901,686.429688 471.074860,669.824829 
	C481.901886,655.822083 490.838379,640.754822 497.157532,624.289429 
	C502.890656,609.351074 508.783051,594.342102 512.736145,578.886169 
	C517.527283,560.153503 520.659424,540.970703 523.919006,521.881836 
	C525.864563,510.488037 527.151733,498.929993 527.860962,487.392059 
	C528.514465,476.762421 528.123474,466.059113 527.958191,455.391876 
	C527.840637,447.803680 527.692810,440.185181 526.928894,432.643951 
	C525.154907,415.131409 523.792664,397.519104 520.772217,380.207428 
	C517.850403,363.460724 513.497131,346.919739 508.971405,330.509308 
	C504.465027,314.169220 498.022095,298.566345 490.407654,283.298157 
	C484.175537,270.801727 477.174408,258.877960 468.430573,248.258850 
	C459.324310,237.199600 448.807983,227.281052 435.496735,220.912766 
	C426.000488,216.369598 416.246857,212.727661 405.714691,212.085312 
	C395.559845,211.465988 385.444458,212.016312 375.537292,214.962311 
	C360.404938,219.462097 347.648071,227.981064 336.769379,238.971436 
	C324.644714,251.220490 315.497406,265.806030 307.029663,281.680725 
z"/>
</svg>